HIERARCHY
ROOT Hips
{
	OFFSET 0.622353 42.527802 -39.594372
	CHANNELS 6 Xposition Yposition Zposition Xrotation Yrotation Zrotation
	JOINT Chest
	{
		OFFSET 0.132150 13.602631 1.051289
		CHANNELS 3 Xrotation Yrotation Zrotation
		JOINT Chest2
		{
			OFFSET -2.907059 11.153084 18.061682
			CHANNELS 3 Xrotation Yrotation Zrotation
			JOINT Chest3
			{
				OFFSET -0.263001 9.815636 11.242957
				CHANNELS 3 Xrotation Yrotation Zrotation
				JOINT Neck
				{
					OFFSET -1.063141 12.548874 11.832652
					CHANNELS 3 Xrotation Yrotation Zrotation
					JOINT Head
					{
						OFFSET -1.166419 6.846596 7.848017
						CHANNELS 3 Xrotation Yrotation Zrotation
						End Site
						{
							OFFSET -1.158756 6.901733 7.800703
						}
					}
				}
				JOINT LeftCollar
				{
					OFFSET 3.573881 8.051094 11.145027
					CHANNELS 3 Xrotation Yrotation Zrotation
					JOINT LeftUpArm
					{
						OFFSET 16.413145 0.132118 -6.252246
						CHANNELS 3 Xrotation Yrotation Zrotation
						JOINT LeftLowArm
						{
							OFFSET 11.004658 -25.985470 -18.530554
							CHANNELS 3 Xrotation Yrotation Zrotation
							JOINT LeftHand
							{
								OFFSET 5.916359 -28.459743 -7.482441
								CHANNELS 3 Xrotation Yrotation Zrotation
								End Site
								{
									OFFSET 1.293060 -6.220041 -1.635338
								}
							}
						}
					}
				}
				JOINT RightCollar
				{
					OFFSET -4.806611 7.275482 11.214835
					CHANNELS 3 Xrotation Yrotation Zrotation
					JOINT RightUpArm
					{
						OFFSET -16.461929 -3.916504 -4.707674
						CHANNELS 3 Xrotation Yrotation Zrotation
						JOINT RightLowArm
						{
							OFFSET -8.380543 -32.185963 -5.793544
							CHANNELS 3 Xrotation Yrotation Zrotation
							JOINT RightHand
							{
								OFFSET -8.883629 -28.573210 -2.368064
								CHANNELS 3 Xrotation Yrotation Zrotation
								End Site
								{
									OFFSET -1.941601 -6.244962 -0.517564
								}
							}
						}
					}
				}
			}
		}
	}
	JOINT LeftUpLeg
	{
		OFFSET 9.775644 -0.264259 2.187710
		CHANNELS 3 Xrotation Yrotation Zrotation
		JOINT LeftLowLeg
		{
			OFFSET -5.194791 2.345592 47.026596
			CHANNELS 3 Xrotation Yrotation Zrotation
			JOINT LeftFoot
			{
				OFFSET 1.019086 -36.006943 -26.514702
				CHANNELS 3 Xrotation Yrotation Zrotation
				JOINT LeftToe
				{
					OFFSET -0.418145 -17.451115 15.963814
					CHANNELS 3 Xrotation Yrotation Zrotation
					End Site
					{
						OFFSET 0.325641 -3.371622 23.411215
					}
				}
			}
		}
	}
	JOINT RightUpLeg
	{
		OFFSET -9.775650 0.264061 -2.187729
		CHANNELS 3 Xrotation Yrotation Zrotation
		JOINT RightLowLeg
		{
			OFFSET -23.531010 -20.812124 35.456444
			CHANNELS 3 Xrotation Yrotation Zrotation
			JOINT RightFoot
			{
				OFFSET 24.968536 -10.347269 -35.638283
				CHANNELS 3 Xrotation Yrotation Zrotation
				JOINT RightToe
				{
					OFFSET 16.219368 -16.038647 6.265030
					CHANNELS 3 Xrotation Yrotation Zrotation
					End Site
					{
						OFFSET 6.171787 -13.536736 18.390812
					}
				}
			}
		}
	}
}
MOTION
Frames: 8
Frame Time: 0.033333
3.328341 105.906929 -1.111755 1.786950 9.453555 0.330125 -55.613258 3.305861 -4.233776 3.975118 -5.147407 2.572677 10.960439 -3.205113 -10.235378 -3.718702 3.152341 3.314908 -0.000001 0.000000 -0.000000 1.686628 14.794448 7.585470 1.178856 -9.638655 -9.869335 2.421329 -9.909878 -5.347764 -0.000002 0.000001 -0.000002 2.830835 -22.331771 -11.624376 22.559065 0.808760 5.889897 -11.049520 7.369408 27.210079 -0.000004 -0.000003 0.000001 91.517377 8.971023 5.873554 -119.456539 34.064800 14.766480 16.477041 -35.971649 -11.234480 -0.000002 0.000000 -0.000000 53.070044 11.641171 30.996133 -93.210820 30.553629 -76.734033 4.389202 11.292460 7.582589 -0.000000 0.000000 0.000002 
3.327601 105.911179 -1.117153 1.649223 9.429416 0.297671 -55.576016 3.298973 -4.242673 4.479690 -5.178422 2.669313 10.739875 -3.396642 -10.409953 -4.142983 3.335926 3.341420 0.000005 0.000000 -0.000000 1.876861 14.451567 7.486416 1.370873 -9.561616 -9.905742 2.625745 -10.082305 -5.024460 -0.000001 0.000000 -0.000000 3.223372 -21.424866 -11.002912 22.636148 0.957543 6.100191 -11.631897 7.651724 26.911753 -0.000003 0.000000 0.000002 91.454218 9.043928 5.874023 -119.204437 34.060238 14.706973 16.512749 -36.135932 -11.246584 -0.000001 0.000000 0.000000 53.376197 11.687509 31.064780 -93.632994 30.596690 -76.628691 4.481297 11.197277 7.301345 0.000002 0.000001 0.000003 
3.332411 105.917961 -1.126228 1.449377 9.699132 0.310181 -55.427941 3.246418 -4.224931 4.896545 -5.314744 2.757363 10.334085 -3.591056 -10.781606 -4.099321 3.435540 3.409675 -0.000003 0.000001 -0.000000 1.950427 14.364327 7.565018 1.556173 -9.515866 -9.989932 2.433782 -10.568150 -4.943499 0.000001 0.000003 0.000002 3.688964 -20.370407 -10.291341 22.794143 0.963558 6.277783 -12.353072 8.209853 26.647329 -0.000002 -0.000003 0.000001 91.920952 9.109353 5.817178 -119.444381 34.087913 14.799089 16.660016 -36.682880 -11.550027 -0.000001 0.000000 -0.000000 53.617118 11.664971 31.088853 -93.770356 30.604172 -76.530207 4.893352 11.145308 6.831102 0.000003 0.000002 -0.000000 
3.336381 105.921249 -1.134823 1.779876 9.638836 0.339630 -55.760524 3.339677 -4.280406 5.029178 -5.294256 2.793153 10.211869 -3.852140 -10.996103 -4.081082 3.552818 3.460476 0.000000 0.000001 0.000001 1.803434 14.790688 7.954805 1.518244 -9.700903 -10.073798 2.636796 -10.714446 -5.024956 0.000002 0.000000 -0.000000 4.024123 -19.568793 -9.730499 22.872217 1.068733 6.444231 -12.823522 8.520337 26.405032 0.000001 -0.000003 -0.000000 91.918152 9.113819 5.829610 -120.002899 34.271413 14.837845 17.038660 -36.863740 -11.055017 -0.000001 -0.000000 -0.000000 53.458552 11.648640 31.046010 -94.076881 30.660566 -76.493836 5.083089 11.400488 6.857807 0.000001 0.000003 -0.000000 
3.338078 105.930618 -1.145420 1.929009 9.816405 0.249476 -55.576211 3.240238 -4.219604 3.737342 -5.146408 2.560422 11.453073 -3.809918 -10.737977 -4.041832 3.286384 3.394940 0.000000 0.000000 -0.000000 1.797778 14.522504 7.980025 1.519484 -9.547640 -10.105416 2.895099 -10.414579 -5.098386 0.000000 0.000001 -0.000000 3.527429 -20.481036 -10.615887 22.784150 1.019961 6.475014 -12.144175 8.128851 26.645768 -0.000004 -0.000002 0.000003 91.066058 9.099042 5.899987 -119.078433 33.990074 14.629039 16.915933 -36.544685 -11.020943 -0.000002 0.000001 -0.000001 53.217050 11.744365 31.068133 -93.776749 30.664421 -76.541395 4.654170 11.089975 7.031509 0.000001 0.000000 0.000002 
3.337406 105.936218 -1.156338 1.856446 9.978088 0.208847 -55.365770 3.233462 -4.200376 3.874434 -5.233862 2.583633 11.202637 -3.429107 -10.541643 -3.593327 2.972931 3.350769 -0.000001 0.000000 -0.000000 1.821572 14.263584 7.819621 1.607053 -9.385504 -9.913437 2.974047 -10.001185 -5.436418 0.000002 0.000004 -0.000000 3.149736 -21.147382 -11.230022 23.124277 0.642643 6.236783 -11.730435 7.777749 26.823471 -0.000005 0.000002 0.000005 90.735402 9.110256 5.921006 -118.752824 33.913849 14.555399 17.084863 -36.551156 -10.789788 -0.000000 0.000001 -0.000001 53.072301 11.761284 31.068212 -93.464575 30.596550 -76.598598 4.568527 11.045574 7.088982 0.000003 0.000000 0.000003 
3.337896 105.939545 -1.167152 2.088815 9.956694 0.217513 -55.532617 3.328532 -4.242848 3.696334 -5.175333 2.553010 11.450049 -3.662465 -10.553561 -3.767732 3.145086 3.368413 -0.000005 0.000001 -0.000000 1.756204 14.547741 7.854513 1.443059 -9.620098 -10.009103 2.904843 -10.096283 -5.586768 0.000003 0.000002 -0.000001 3.365847 -20.819334 -10.829663 22.783897 0.961212 6.391525 -11.880902 7.961942 26.613059 -0.000003 -0.000001 0.000003 90.868680 9.216064 5.889220 -119.192156 34.144706 14.449444 16.963055 -36.410577 -10.852838 -0.000001 0.000000 0.000000 52.988748 11.727198 31.041980 -93.786564 30.637333 -76.494485 4.629862 11.207770 7.170939 0.000003 0.000000 0.000006 
3.338278 105.940918 -1.176601 2.201870 9.986157 0.142272 -55.383306 3.333939 -4.248955 3.146148 -5.209421 2.462425 11.711621 -3.673680 -10.473774 -3.569628 3.227348 3.332710 -0.000005 0.000000 -0.000000 1.679690 14.292978 7.961917 1.737510 -9.082133 -9.920949 2.409945 -9.863343 -5.794779 -0.000001 0.000001 -0.000001 3.133908 -20.886085 -11.142834 22.884603 0.670463 6.321127 -11.429016 7.593444 26.766813 -0.000003 -0.000003 0.000003 91.303988 9.389803 5.905516 -119.609822 34.307518 14.409951 17.104894 -36.677638 -10.856527 -0.000002 0.000000 -0.000001 52.849757 11.797099 31.073649 -93.727708 30.693036 -76.525583 4.754734 11.334221 7.198355 0.000003 0.000001 0.000003 
